<?xml version="1.0" encoding="UTF-8" standalone="no"?>
<!-- Created with Inkscape (http://www.inkscape.org/) -->

<svg
  width="28"
  height="32"
  viewBox="0 0 28 32"
  version="1.1"
  id="svg5"
  xml:space="preserve"
  inkscape:version="1.2.2 (732a01da63, 2022-12-09)"
  sodipodi:docname="CS_Logo - Copy.svg"
  xmlns:inkscape="http://www.inkscape.org/namespaces/inkscape"
  xmlns:sodipodi="http://sodipodi.sourceforge.net/DTD/sodipodi-0.dtd"
  xmlns:xlink="http://www.w3.org/1999/xlink"
  xmlns="http://www.w3.org/2000/svg"
  xmlns:svg="http://www.w3.org/2000/svg"><sodipodi:namedview
     id="namedview7"
     pagecolor="#ffffff"
     bordercolor="#111111"
     borderopacity="1"
     inkscape:showpageshadow="true"
     inkscape:pageopacity="0"
     inkscape:pagecheckerboard="false"
     inkscape:deskcolor="#d1d1d1"
     inkscape:document-units="px"
     showgrid="false"
     inkscape:zoom="1"
     inkscape:cx="-181"
     inkscape:cy="-176"
     inkscape:window-width="1366"
     inkscape:window-height="705"
     inkscape:window-x="-8"
     inkscape:window-y="-8"
     inkscape:window-maximized="1"
     inkscape:current-layer="layer1" /><defs
     id="defs2"><linearGradient
       inkscape:collect="always"
       id="linearGradient7010"><stop
         style="stop-color:#ffffff;stop-opacity:1;"
         offset="0"
         id="stop7006" /><stop
         style="stop-color:#1b1c54;stop-opacity:1;"
         offset="1"
         id="stop7008" /></linearGradient><linearGradient
       inkscape:collect="always"
       id="linearGradient1088"><stop
         style="stop-color:#00ffff;stop-opacity:1;"
         offset="0"
         id="stop1084" /><stop
         style="stop-color:#0080ff;stop-opacity:1;"
         offset="1"
         id="stop1086" /></linearGradient><radialGradient
       inkscape:collect="always"
       xlink:href="#linearGradient7010"
       id="radialGradient7012"
       cx="58.722168"
       cy="29.112089"
       fx="58.722168"
       fy="29.112089"
       r="17.002869"
       gradientTransform="matrix(0.40737831,0,0,0.40737831,11.796092,7.261958)"
       gradientUnits="userSpaceOnUse" /><radialGradient
       inkscape:collect="always"
       xlink:href="#linearGradient7010"
       id="radialGradient7018"
       gradientUnits="userSpaceOnUse"
       gradientTransform="matrix(0.26182215,0,0,0.26182215,2.5925726,3.5747832)"
       cx="58.722168"
       cy="29.112089"
       fx="58.722168"
       fy="29.112089"
       r="17.002869" /><radialGradient
       inkscape:collect="always"
       xlink:href="#linearGradient7010"
       id="radialGradient7020"
       gradientUnits="userSpaceOnUse"
       gradientTransform="matrix(0.31900493,0,0,0.31900493,9.119006,-0.40319)"
       cx="58.722168"
       cy="29.112089"
       fx="58.722168"
       fy="29.112089"
       r="17.002869" /><radialGradient
       inkscape:collect="always"
       xlink:href="#linearGradient1088"
       id="radialGradient913"
       cx="33.567795"
       cy="14.697402"
       fx="33.567795"
       fy="14.697402"
       r="19.999998"
       gradientTransform="matrix(1.7869112,0,0,2.1757581,-26.357666,-20.602993)"
       gradientUnits="userSpaceOnUse" /></defs><g
     inkscape:label="Layer 1"
     inkscape:groupmode="layer"
     id="layer1"
     transform="matrix(0.70000005,0,0,0.66666667,-2.8000002,0)"><path
       id="path1448"
       style="display:inline;fill:url(#radialGradient913);fill-opacity:1;fill-rule:evenodd;stroke:none;stroke-width:0;stroke-linecap:round;stroke-linejoin:round;stroke-dasharray:none;stroke-opacity:1;paint-order:stroke fill markers"
       d="M 26.447676,0 C 36.074446,0 43.877944,7.225965 43.877944,16.139691 45.493248,31.184847 30.410196,32.730865 37.821446,48 h -19.33831 -0.27841 c 0.29586,-5.407877 -0.80845,-9.834259 -8.2647696,-10.090755 -2.59547,0.08174 -4.53793,-0.556914 -2.96964,-5.326594 -0.69477,-0.640706 -2.12356,-1.393616 0.34391,-2.624696 -2.3898,-1.040454 -1.79437,-1.431367 -0.81884,-2.961058 -3.66144,-3.144566 -3.14223,-2.869949 0.56773,-7.251006 1.35911,-0.959078 1.30295,-1.844831 1.29921,-3.319472 C 9.2338764,6.073686 16.820906,0 26.447676,0 Z"
       sodipodi:nodetypes="sccccccccccs" /><path
       id="path6992"
       style="fill:url(#radialGradient7012);fill-opacity:1;fill-rule:evenodd;stroke-width:0.135293"
       d="m 35.718192,12.194995 a 6.9266091,6.9266091 0 0 0 -0.674673,0.03706 l -0.530372,2.18448 a 4.8601073,4.8601073 0 0 0 -1.27119,0.52519 L 31.322665,13.77234 a 6.9266091,6.9266091 0 0 0 -0.953775,0.953774 l 1.169321,1.919223 a 4.8601073,4.8601073 0 0 0 -0.525197,1.271257 l -2.184337,0.530371 a 6.9266091,6.9266091 0 0 0 -0.03705,0.674677 6.9266091,6.9266091 0 0 0 0.03705,0.674674 l 2.184405,0.530372 a 4.8601073,4.8601073 0 0 0 0.5252,1.271184 l -1.169392,1.919295 a 6.9266091,6.9266091 0 0 0 0.953775,0.953772 l 1.919292,-1.169389 a 4.8601073,4.8601073 0 0 0 1.27119,0.525198 l 0.530374,2.184409 a 6.9266091,6.9266091 0 0 0 0.674671,0.03705 6.9266091,6.9266091 0 0 0 0.674678,-0.03705 l 0.530372,-2.18434 a 4.8601073,4.8601073 0 0 0 1.271256,-0.525199 l 1.919224,1.169321 a 6.9266091,6.9266091 0 0 0 0.953775,-0.953772 l -1.169392,-1.919291 a 4.8601073,4.8601073 0 0 0 0.525198,-1.271188 l 2.18448,-0.530369 a 6.9266091,6.9266091 0 0 0 0.03705,-0.674676 6.9266091,6.9266091 0 0 0 -0.03329,-0.673768 L 40.426445,17.91736 a 4.8601073,4.8601073 0 0 0 -0.527436,-1.273425 l 1.169878,-1.920202 A 6.9266091,6.9266091 0 0 0 40.116025,13.770942 L 38.195894,14.94082 A 4.8601073,4.8601073 0 0 0 36.92247,14.413384 L 36.391889,12.228205 A 6.9266091,6.9266091 0 0 0 35.718192,12.195 Z m 0,4.151595 a 2.7750339,2.7750339 0 0 1 2.775048,2.774979 2.7750339,2.7750339 0 0 1 -2.775048,2.775049 2.7750339,2.7750339 0 0 1 -2.774976,-2.775049 2.7750339,2.7750339 0 0 1 2.774976,-2.774979 z"
       inkscape:export-filename="Real-Gear.svg"
       inkscape:export-xdpi="96"
       inkscape:export-ydpi="96"
       inkscape:transform-center-x="-7.7805777"
       inkscape:transform-center-y="5.131871" /><path
       id="path7014"
       style="fill:url(#radialGradient7020);fill-opacity:1;fill-rule:evenodd;stroke-width:0.105943"
       d="m 27.851638,3.4597136 a 5.424006,5.424006 0 0 0 -0.528315,0.029022 L 26.908005,5.1993319 A 3.8057946,3.8057946 0 0 0 25.912577,5.6105916 L 24.409641,4.6948838 A 5.424006,5.424006 0 0 0 23.66277,5.4417531 l 0.915658,1.5028829 a 3.8057946,3.8057946 0 0 0 -0.411265,0.99548 l -1.710484,0.415317 a 5.424006,5.424006 0 0 0 -0.02901,0.528318 5.424006,5.424006 0 0 0 0.02901,0.528315 l 1.710537,0.415318 a 3.8057946,3.8057946 0 0 0 0.411268,0.995424 l -0.915714,1.502938 a 5.424006,5.424006 0 0 0 0.746871,0.746869 l 1.502936,-0.915712 a 3.8057946,3.8057946 0 0 0 0.995428,0.411266 l 0.415319,1.710541 a 5.424006,5.424006 0 0 0 0.528314,0.02901 5.424006,5.424006 0 0 0 0.528318,-0.02901 l 0.415317,-1.710487 a 3.8057946,3.8057946 0 0 0 0.99548,-0.411266 l 1.502883,0.915658 a 5.424006,5.424006 0 0 0 0.746871,-0.746869 L 31.124793,10.82281 a 3.8057946,3.8057946 0 0 0 0.411266,-0.995426 l 1.710596,-0.415315 a 5.424006,5.424006 0 0 0 0.02901,-0.528317 5.424006,5.424006 0 0 0 -0.02607,-0.527607 L 31.538521,7.940716 A 3.8057946,3.8057946 0 0 0 31.125503,6.943537 L 32.041597,5.439889 A 5.424006,5.424006 0 0 0 31.29544,4.6937871 l -1.503593,0.916094 A 3.8057946,3.8057946 0 0 0 28.794669,5.1968629 L 28.379188,3.4857194 a 5.424006,5.424006 0 0 0 -0.52755,-0.026002 z m 0,3.2509814 a 2.1730403,2.1730403 0 0 1 2.17305,2.172997 2.1730403,2.1730403 0 0 1 -2.17305,2.173053 2.1730403,2.1730403 0 0 1 -2.172996,-2.173053 2.1730403,2.1730403 0 0 1 2.172996,-2.172997 z"
       inkscape:export-filename="Real-Gear.svg"
       inkscape:export-xdpi="96"
       inkscape:export-ydpi="96"
       inkscape:transform-center-x="-6.0927215"
       inkscape:transform-center-y="4.0186034" /><path
       id="path7016"
       style="fill:url(#radialGradient7018);fill-opacity:1;fill-rule:evenodd;stroke-width:0.0869527"
       d="M 17.967313,6.745248 A 4.4517335,4.4517335 0 0 0 17.5337,6.769068 l -0.34087,1.403965 a 3.1235923,3.1235923 0 0 0 -0.816994,0.33754 L 15.142307,7.759009 a 4.4517335,4.4517335 0 0 0 -0.612992,0.61299 l 0.751523,1.233486 a 3.1235923,3.1235923 0 0 0 -0.337545,0.817036 l -1.403873,0.34087 a 4.4517335,4.4517335 0 0 0 -0.02381,0.433615 4.4517335,4.4517335 0 0 0 0.02381,0.433613 l 1.403917,0.34087 a 3.1235923,3.1235923 0 0 0 0.337546,0.816991 l -0.751568,1.233531 a 4.4517335,4.4517335 0 0 0 0.612992,0.61299 l 1.233529,-0.751567 a 3.1235923,3.1235923 0 0 0 0.816994,0.337545 l 0.340872,1.40392 a 4.4517335,4.4517335 0 0 0 0.433611,0.02381 4.4517335,4.4517335 0 0 0 0.433615,-0.02381 l 0.34087,-1.403875 a 3.1235923,3.1235923 0 0 0 0.817037,-0.337546 l 1.233486,0.751523 a 4.4517335,4.4517335 0 0 0 0.612992,-0.61299 l -0.751569,-1.233529 a 3.1235923,3.1235923 0 0 0 0.337545,-0.816993 l 1.403965,-0.340868 a 4.4517335,4.4517335 0 0 0 0.02381,-0.433614 4.4517335,4.4517335 0 0 0 -0.0214,-0.433031 L 20.99331,10.423014 A 3.1235923,3.1235923 0 0 0 20.654326,9.604583 L 21.406207,8.370469 A 4.4517335,4.4517335 0 0 0 20.793801,7.758109 L 19.559733,8.50999 A 3.1235923,3.1235923 0 0 0 18.741303,8.171007 L 18.400298,6.766592 a 4.4517335,4.4517335 0 0 0 -0.432985,-0.02134 z m 0,2.668231 a 1.783515,1.783515 0 0 1 1.783524,1.783479 1.783515,1.783515 0 0 1 -1.783524,1.783525 1.783515,1.783515 0 0 1 -1.783478,-1.783525 1.783515,1.783515 0 0 1 1.783478,-1.783479 z"
       inkscape:export-filename="Real-Gear.svg"
       inkscape:export-xdpi="96"
       inkscape:export-ydpi="96"
       inkscape:transform-center-x="-5.0005776"
       inkscape:transform-center-y="3.2982543" /></g></svg>